<svg width="20" height="20" viewBox="0 0 20 20" fill="none" xmlns="http://www.w3.org/2000/svg">
<g clip-path="url(#clip0_12_1446)">
<path d="M4.6875 10.0001C4.6875 9.00925 4.96051 8.08101 5.4348 7.2862V3.91479H2.0634C0.725313 5.65261 0 7.77054 0 10.0001C0 12.2298 0.725313 14.3477 2.0634 16.0855H5.4348V12.7141C4.96051 11.9193 4.6875 10.991 4.6875 10.0001Z" fill="#FBBD00"/>
<path d="M10 15.3126L7.65625 17.6563L10 20.0001C12.2296 20.0001 14.3475 19.2747 16.0854 17.9367V14.5688H12.7175C11.9158 15.0449 10.9836 15.3126 10 15.3126Z" fill="#0F9D58"/>
<path d="M5.43488 12.7139L2.06348 16.0853C2.3284 16.4293 2.61688 16.7588 2.92902 17.071C4.81777 18.9597 7.32898 19.9999 10.0001 19.9999V15.3124C8.06164 15.3124 6.3627 14.2687 5.43488 12.7139Z" fill="#31AA52"/>
<path d="M20 10C20 9.39164 19.9449 8.78211 19.8363 8.18844L19.7483 7.70801H10V12.3955H14.7442C14.2835 13.312 13.5752 14.0596 12.7175 14.5689L16.0853 17.9367C16.4294 17.6718 16.7589 17.3833 17.0711 17.0711C18.9598 15.1823 20 12.6711 20 10Z" fill="#3C79E6"/>
<path d="M13.7565 6.24348L14.1708 6.65777L17.4854 3.34324L17.0711 2.92895C15.1823 1.0402 12.6711 0 10 0L7.65625 2.34375L10 4.6875C11.419 4.6875 12.7531 5.24008 13.7565 6.24348Z" fill="#CF2D48"/>
<path d="M9.99987 4.6875V0C7.32878 0 4.81757 1.0402 2.92878 2.92891C2.61663 3.24105 2.32815 3.57055 2.06323 3.91465L5.43464 7.28605C6.36249 5.73125 8.06144 4.6875 9.99987 4.6875Z" fill="#EB4132"/>
</g>
<defs>
<clipPath id="clip0_12_1446">
<rect width="20" height="20" fill="white"/>
</clipPath>
</defs>
</svg>
