<svg width="36" height="35" viewBox="0 0 36 35" fill="none" xmlns="http://www.w3.org/2000/svg">
<g clip-path="url(#clip0_12_561)">
<rect opacity="0.1" x="0.515625" y="0.0864258" width="35" height="35" rx="17.5" fill="white"/>
<path d="M23.7514 11.6436C24.2112 11.6436 24.617 12.0494 24.617 12.5363V22.8967C24.617 23.3836 24.2112 23.7624 23.7514 23.7624H13.3368C12.877 23.7624 12.4982 23.3836 12.4982 22.8967V12.5363C12.4982 12.0494 12.877 11.6436 13.3368 11.6436H23.7514ZM16.1501 22.0311V16.2693H14.3647V22.0311H16.1501ZM15.2574 15.4578C15.8255 15.4578 16.2854 14.9979 16.2854 14.4298C16.2854 13.8618 15.8255 13.3749 15.2574 13.3749C14.6623 13.3749 14.2024 13.8618 14.2024 14.4298C14.2024 14.9979 14.6623 15.4578 15.2574 15.4578ZM22.8857 22.0311V18.8662C22.8857 17.3243 22.5341 16.107 20.7217 16.107C19.8561 16.107 19.2609 16.5939 19.0175 17.0538H18.9904V16.2693H17.2862V22.0311H19.0716V19.1908C19.0716 18.4333 19.2068 17.703 20.1536 17.703C21.0733 17.703 21.0733 18.5686 21.0733 19.2178V22.0311H22.8857Z" fill="white"/>
</g>
<defs>
<clipPath id="clip0_12_561">
<rect width="34.625" height="34.625" fill="white" transform="translate(0.515625 0.0864258)"/>
</clipPath>
</defs>
</svg>
