<svg width="32" height="30" viewBox="0 0 32 30" fill="none" xmlns="http://www.w3.org/2000/svg">
<g clip-path="url(#clip0_39_238)">
<path d="M1.58125 12.7758C1.45 13.4655 1.83437 13.8988 2.74375 14.1288C3.63437 14.3587 3.8125 14.4736 3.775 14.6417C3.7375 14.8274 3.55937 14.9246 2.88437 14.9246C2.29375 14.9246 1.75 14.8362 1.31875 14.6417L1 15.6763C1.49687 15.862 2.14375 15.9416 2.82812 15.9416C4.45 15.9416 5.19062 15.4729 5.36875 14.5886C5.50937 13.9077 5.125 13.4921 4.1875 13.2268C3.29687 12.988 3.14687 12.8819 3.175 12.7139C3.20312 12.537 3.37187 12.4486 4.00937 12.4486C4.49687 12.4486 5.07812 12.5282 5.37812 12.652L5.6875 11.635C5.2375 11.4935 4.60937 11.4316 4 11.4316C2.54687 11.4316 1.75937 11.8915 1.58125 12.7758Z" fill="#A2A2A2"/>
<path d="M10.7502 13.0234C10.9658 11.9799 10.1877 11.5112 8.77207 11.5112H6.65332L5.7627 15.8708H7.3002L7.5627 14.5355H8.1627C9.56895 14.5267 10.5439 14.058 10.7502 13.0234ZM9.29707 13.0234C9.2127 13.4567 8.8377 13.5893 8.3127 13.5893H7.7502L7.9752 12.4486H8.5377C9.08145 12.4486 9.38145 12.5812 9.29707 13.0234Z" fill="#A2A2A2"/>
<path d="M16.3655 13.6866C16.6186 12.3866 15.9061 11.4404 14.1343 11.4404C12.3624 11.4404 11.2561 12.3866 10.9936 13.6866C10.7218 14.9865 11.4436 15.9415 13.2155 15.9415C14.978 15.9415 16.0936 14.9865 16.3655 13.6866ZM14.7811 13.6866C14.603 14.5266 14.1436 14.9688 13.403 14.9688C12.6718 14.9688 12.3905 14.5178 12.5686 13.6866C12.7374 12.8465 13.1968 12.4043 13.9374 12.4043C14.6686 12.4043 14.9499 12.8465 14.7811 13.6866Z" fill="#FF3811"/>
<path d="M21.5783 12.9173C21.7752 11.9358 20.9689 11.5024 19.5908 11.5024H17.4346L16.5439 15.8621H18.0721L18.3814 14.3322H18.7564L19.6939 15.8621H21.4377L20.2377 14.1819C20.9596 13.9873 21.4471 13.5717 21.5783 12.9173ZM20.0408 12.9173C19.9752 13.271 19.6283 13.4214 19.1502 13.4214H18.5877L18.7846 12.4044H19.3564C19.8252 12.4133 20.1158 12.5636 20.0408 12.9173Z" fill="#A2A2A2"/>
<path d="M22.9751 15.862H24.5407L25.2345 12.5105H26.7063L26.9126 11.5112H22.3938L22.1782 12.5105H23.6595L22.9751 15.862Z" fill="#A2A2A2"/>
<path d="M26.8938 12.7758C26.7626 13.4567 27.1376 13.8901 28.0563 14.1288C28.947 14.3587 29.1251 14.4737 29.0876 14.6417C29.0501 14.8274 28.872 14.9247 28.197 14.9247C27.6063 14.9247 27.0626 14.8363 26.6313 14.6417L26.3032 15.6675C26.8001 15.8532 27.447 15.9328 28.1313 15.9328C29.7532 15.9328 30.4938 15.4641 30.672 14.5798C30.8126 13.9077 30.4282 13.4833 29.4907 13.218C28.6001 12.9792 28.4501 12.8731 28.4782 12.7051C28.5063 12.5282 28.6751 12.4398 29.3126 12.4398C29.8001 12.4398 30.372 12.5194 30.6907 12.6432L30.9907 11.6262C30.5407 11.4848 29.9126 11.4229 29.3032 11.4229C27.8595 11.4317 27.0813 11.8915 26.8938 12.7758Z" fill="#A2A2A2"/>
<path d="M12.6248 10.8041C12.7279 10.3001 12.4466 9.9375 11.7623 9.9375C11.0873 9.9375 10.6466 10.3089 10.5529 10.8041C10.4404 11.3082 10.7216 11.6796 11.406 11.6796C12.0904 11.6796 12.5216 11.3082 12.6248 10.8041Z" fill="#A2A2A2"/>
<path d="M10.225 9.59248C10.2906 9.2476 10.0937 9 9.64371 9C9.18433 9 8.88433 9.2476 8.82808 9.59248C8.76246 9.92852 8.94058 10.1761 9.40933 10.1761C9.85933 10.1761 10.15 9.92852 10.225 9.59248Z" fill="#A2A2A2"/>
<path d="M16.7124 10.7157C16.7593 10.4592 16.6186 10.2559 16.253 10.2559C15.8968 10.2559 15.6718 10.4504 15.6155 10.7157C15.5593 10.981 15.7093 11.1755 16.0655 11.1755C16.4218 11.1667 16.6468 10.981 16.7124 10.7157Z" fill="#A2A2A2"/>
<path d="M12.1092 17.4807C12.1092 17.6664 12.0623 17.8256 11.9592 17.9494C11.8561 18.0732 11.7154 18.1705 11.5279 18.2501V18.2589C11.6029 18.2766 11.6686 18.3031 11.7248 18.3385C11.7811 18.3739 11.8279 18.4181 11.8748 18.4711C11.9217 18.5242 11.9404 18.5773 11.9686 18.6392C11.9873 18.7011 11.9967 18.763 11.9967 18.8249C11.9967 19.0371 11.9311 19.2228 11.7904 19.382C11.6498 19.5411 11.4529 19.6649 11.1904 19.7534C11.0686 19.7887 10.9373 19.8153 10.7873 19.833C10.6373 19.8506 10.4686 19.8595 10.2717 19.8595H9.31543L9.9998 16.7202H10.9279C11.0592 16.7202 11.1811 16.7291 11.2842 16.7379C11.3873 16.7556 11.4811 16.7733 11.5654 16.7998C11.7436 16.8617 11.8842 16.9501 11.9779 17.0651C12.0623 17.1889 12.1092 17.3215 12.1092 17.4807ZM10.2154 18.4888L10.0186 19.3731H10.3373C10.6186 19.3731 10.8248 19.3466 10.9748 19.2935C11.1154 19.2405 11.2186 19.1697 11.2842 19.0813C11.3498 18.9929 11.3779 18.8956 11.3779 18.7983C11.3779 18.7364 11.3592 18.6745 11.3217 18.6303C11.2842 18.5861 11.2279 18.5507 11.1436 18.5242C11.1061 18.5154 11.0592 18.5065 11.0123 18.4977C10.9654 18.4888 10.8904 18.4888 10.8154 18.4888H10.2154ZM10.7592 18.0113C10.8623 18.0113 10.9373 18.0113 11.0029 18.0025C11.0686 17.9936 11.1248 17.9759 11.1717 17.9582C11.2748 17.9229 11.3498 17.861 11.4061 17.7902C11.4623 17.7195 11.4904 17.631 11.4904 17.5249C11.4904 17.463 11.4717 17.41 11.4436 17.3569C11.4061 17.3039 11.3498 17.2685 11.2748 17.242C11.2373 17.2243 11.1811 17.2154 11.1248 17.2066C11.0686 17.1977 10.9936 17.1977 10.9186 17.1977H10.4967L10.3186 18.0113H10.7592Z" fill="#FF3811"/>
<path d="M14.4531 19.3111C14.4531 19.3554 14.4625 19.3819 14.4906 19.3996C14.5187 19.4173 14.5469 19.4261 14.5938 19.4261C14.6406 19.4261 14.6969 19.4173 14.7719 19.4084L14.6688 19.8506C14.5656 19.8683 14.4719 19.8771 14.3781 19.8771C14.2469 19.8771 14.1437 19.8506 14.0687 19.7887C13.9937 19.7268 13.9563 19.6472 13.9375 19.5322H13.9281C13.8156 19.6649 13.6938 19.7621 13.5625 19.8152C13.4313 19.8771 13.3 19.9036 13.1781 19.9036C13.075 19.9036 12.9719 19.8859 12.8875 19.8506C12.8031 19.8152 12.7281 19.7621 12.6719 19.6914C12.6156 19.6206 12.5688 19.5411 12.5313 19.4438C12.5031 19.3465 12.4844 19.2404 12.4844 19.1166C12.4844 18.9928 12.4938 18.8601 12.5219 18.7363C12.55 18.6125 12.5781 18.4887 12.625 18.3649C12.6719 18.2411 12.7281 18.135 12.7938 18.0377C12.8594 17.9316 12.9344 17.8432 13.0187 17.7725C13.1031 17.6929 13.1969 17.6398 13.3094 17.5956C13.4125 17.5514 13.5344 17.5337 13.6563 17.5337C13.7688 17.5337 13.8813 17.5602 13.9844 17.6044C14.0875 17.6487 14.1719 17.7194 14.2562 17.8167H14.2656L14.35 17.5956H14.8469L14.5 19.1785C14.4906 19.205 14.4906 19.2316 14.4813 19.2581C14.4531 19.2758 14.4531 19.2935 14.4531 19.3111ZM14.1063 18.1615C14.0875 18.1439 14.0687 18.1173 14.05 18.0996C14.0312 18.082 13.9938 18.0554 13.9656 18.0466C13.9375 18.0289 13.9 18.0201 13.8625 18.0024C13.825 17.9935 13.7781 17.9847 13.7406 17.9847C13.6656 17.9847 13.5906 18.0024 13.525 18.0377C13.4594 18.0731 13.4031 18.1173 13.3563 18.1792C13.3094 18.2411 13.2625 18.303 13.225 18.3826C13.1875 18.4622 13.1594 18.533 13.1312 18.6214C13.1031 18.701 13.0938 18.7806 13.075 18.8601C13.0656 18.9397 13.0563 19.0105 13.0563 19.0812C13.0563 19.2139 13.075 19.3111 13.1219 19.373C13.1688 19.4349 13.2344 19.4703 13.3187 19.4703C13.4031 19.4703 13.4875 19.4438 13.5719 19.3907C13.6563 19.3377 13.7313 19.2669 13.7969 19.1697C13.8438 19.1078 13.8812 19.037 13.9094 18.9574C13.9375 18.8778 13.9656 18.7894 13.9938 18.6833L14.1063 18.1615Z" fill="#FF3811"/>
<path d="M16.1779 17.4449C16.1498 17.5687 16.1217 17.6837 16.0842 17.7898H16.0936C16.1217 17.7544 16.1592 17.7279 16.1967 17.6925C16.2342 17.666 16.2811 17.6306 16.3373 17.6129C16.3842 17.5864 16.4404 17.5687 16.5061 17.551C16.5717 17.5333 16.6279 17.5245 16.7029 17.5245C16.8061 17.5245 16.8998 17.5422 16.9936 17.5775C17.0873 17.6129 17.1623 17.666 17.2373 17.7279C17.3123 17.7898 17.3592 17.8782 17.3967 17.9843C17.4342 18.0816 17.4529 18.2054 17.4529 18.338C17.4529 18.453 17.4436 18.5768 17.4154 18.6918C17.3873 18.8156 17.3592 18.9305 17.3029 19.0543C17.2561 19.1693 17.1904 19.2843 17.1154 19.3815C17.0404 19.4788 16.9467 19.5761 16.8436 19.6557C16.7404 19.7352 16.6186 19.7971 16.4873 19.8414C16.3561 19.8856 16.2061 19.9121 16.0373 19.9121C15.9061 19.9121 15.7936 19.8944 15.6904 19.8591C15.5873 19.8237 15.5029 19.7706 15.4373 19.7087C15.3717 19.6468 15.3154 19.5672 15.2779 19.4788C15.2404 19.3904 15.2217 19.2931 15.2217 19.1958C15.2217 19.1516 15.2217 19.1162 15.2311 19.072C15.2404 19.0278 15.2498 18.9747 15.2592 18.904L15.7936 16.4722H16.3748L16.1779 17.4449ZM15.8498 18.9659C15.8404 19.0101 15.8311 19.0455 15.8311 19.072C15.8311 19.0985 15.8311 19.1251 15.8311 19.1428C15.8311 19.24 15.8592 19.3108 15.9061 19.3727C15.9529 19.4346 16.0279 19.4611 16.1217 19.4611C16.2061 19.4611 16.2811 19.4434 16.3467 19.4081C16.4123 19.3727 16.4779 19.3285 16.5342 19.2754C16.5904 19.2224 16.6373 19.1605 16.6842 19.0809C16.7311 19.0101 16.7592 18.9305 16.7967 18.8509C16.8248 18.7714 16.8436 18.6918 16.8623 18.6033C16.8811 18.5238 16.8811 18.4442 16.8811 18.3734C16.8811 18.3204 16.8717 18.2673 16.8623 18.2231C16.8529 18.1789 16.8342 18.1347 16.8061 18.0993C16.7779 18.0639 16.7498 18.0374 16.7029 18.0109C16.6561 17.9932 16.6092 17.9755 16.5529 17.9755C16.4967 17.9755 16.4404 17.9843 16.3748 18.0109C16.3092 18.0374 16.2529 18.0639 16.1967 18.117C16.1404 18.1612 16.0936 18.2231 16.0467 18.3027C15.9998 18.3823 15.9623 18.4707 15.9436 18.5768L15.8498 18.9659Z" fill="#FF3811"/>
<path d="M17.8 17.5864H18.4L18.625 18.5768C18.6719 18.7979 18.7094 18.9925 18.7469 19.1782H18.7656C18.8594 19.0013 18.9625 18.8068 19.075 18.6122L19.6656 17.5864H20.3312L18.9063 19.9298C18.8125 20.089 18.7188 20.2305 18.625 20.3631C18.5313 20.4958 18.4281 20.6107 18.3156 20.6992C18.2031 20.7964 18.0812 20.8672 17.9406 20.9202C17.8 20.9733 17.65 20.9998 17.4813 20.9998C17.35 20.9998 17.2469 20.991 17.1719 20.9733L17.275 20.5312C17.3406 20.54 17.4063 20.5488 17.4625 20.5488C17.5563 20.5488 17.6406 20.5312 17.7156 20.5046C17.7906 20.4781 17.8656 20.425 17.9313 20.372C17.9969 20.3189 18.0625 20.2393 18.1281 20.1421C18.1937 20.0448 18.2594 19.9475 18.3344 19.8237L17.8 17.5864Z" fill="#FF3811"/>
<path d="M23.0031 18.0374H22.375L22.1406 19.1339C22.1312 19.1693 22.1219 19.1958 22.1219 19.2224C22.1219 19.2489 22.1125 19.2666 22.1125 19.2931C22.1125 19.355 22.1312 19.3904 22.1594 19.4169C22.1969 19.4434 22.2531 19.4523 22.3375 19.4523C22.3937 19.4523 22.4687 19.4434 22.5531 19.4346C22.6375 19.4258 22.7219 19.4081 22.7875 19.3904L22.6937 19.8502C22.6187 19.8679 22.525 19.8856 22.4312 19.8944C22.3375 19.9033 22.2531 19.9121 22.1687 19.9121C22.0562 19.9121 21.9531 19.9033 21.8781 19.8768C21.7937 19.8502 21.7281 19.8237 21.6719 19.7795C21.6156 19.7353 21.5781 19.6822 21.55 19.6291C21.5219 19.5672 21.5125 19.4965 21.5125 19.4258C21.5125 19.3992 21.5125 19.3639 21.5219 19.3285C21.5219 19.2931 21.5313 19.2489 21.5406 19.1958L21.7937 18.0462H21.3438L21.4469 17.5864H21.8969L22.0375 16.9497H22.6187L22.4781 17.5864H23.1062L23.0031 18.0374Z" fill="#FF3811"/>
<path d="M24.5687 17.5249C24.7094 17.5249 24.8406 17.5426 24.9531 17.578C25.0656 17.6133 25.1688 17.6664 25.2438 17.7371C25.3281 17.8079 25.3844 17.8963 25.4313 18.0024C25.4781 18.1085 25.4969 18.2412 25.4969 18.3827C25.4969 18.5861 25.4687 18.7718 25.4125 18.9575C25.3562 19.1432 25.2719 19.3024 25.1594 19.4438C25.0469 19.5853 24.9062 19.7003 24.7375 19.7799C24.5687 19.8595 24.3719 19.9037 24.1563 19.9037C24.0156 19.9037 23.8844 19.886 23.7719 19.8506C23.6594 19.8152 23.5562 19.7622 23.4719 19.6914C23.3875 19.6207 23.3312 19.5323 23.2844 19.4262C23.2375 19.32 23.2188 19.1962 23.2188 19.0459C23.2188 18.8425 23.2469 18.6568 23.3031 18.4711C23.3594 18.2854 23.4438 18.1262 23.5563 17.9847C23.6688 17.8433 23.8094 17.7283 23.9781 17.6487C24.1469 17.5691 24.3437 17.5249 24.5687 17.5249ZM24.5125 17.9847C24.4375 17.9847 24.3625 18.0024 24.2969 18.029C24.2313 18.0555 24.175 18.0997 24.1188 18.1528C24.0625 18.2058 24.0156 18.2677 23.9781 18.3385C23.9406 18.4092 23.9031 18.48 23.8844 18.5595C23.8563 18.6391 23.8375 18.7187 23.8281 18.7983C23.8188 18.8779 23.8094 18.9663 23.8094 19.0459C23.8094 19.1786 23.8375 19.2758 23.9031 19.3554C23.9688 19.4262 24.0719 19.4704 24.2031 19.4704C24.2781 19.4704 24.3531 19.4527 24.4188 19.4262C24.4844 19.3996 24.5406 19.3554 24.5969 19.3024C24.6531 19.2493 24.7 19.1874 24.7375 19.1166C24.775 19.0459 24.8125 18.9752 24.8312 18.8956C24.8594 18.816 24.8781 18.7364 24.8875 18.648C24.8969 18.5684 24.9063 18.48 24.9063 18.4004C24.9063 18.2766 24.8781 18.1704 24.8125 18.0997C24.7563 18.0201 24.6531 17.9847 24.5125 17.9847Z" fill="#FF3811"/>
<path d="M25.8438 17.5864H26.4438L26.6688 18.5768C26.7157 18.7979 26.7532 18.9925 26.7907 19.1782H26.8095C26.9032 19.0013 27.0063 18.8068 27.1188 18.6122L27.7095 17.5864H28.3751L26.9595 19.9298C26.8657 20.089 26.772 20.2305 26.6782 20.3631C26.5845 20.4958 26.4813 20.6107 26.3688 20.6992C26.2563 20.7964 26.1345 20.8672 25.9938 20.9203C25.8532 20.9733 25.7032 20.9998 25.5345 20.9998C25.4032 20.9998 25.3001 20.991 25.2251 20.9733L25.3282 20.5312C25.3938 20.54 25.4595 20.5488 25.5157 20.5488C25.6095 20.5488 25.6938 20.5312 25.7688 20.5046C25.8438 20.4781 25.9188 20.425 25.9845 20.372C26.0501 20.3189 26.1157 20.2393 26.1813 20.1421C26.247 20.0448 26.3126 19.9475 26.3876 19.8237L25.8438 17.5864Z" fill="#FF3811"/>
<path d="M29.4437 19.1609C29.4437 19.1167 29.425 19.0725 29.3969 19.046C29.3687 19.0194 29.3219 18.9929 29.275 18.9664C29.2281 18.9398 29.1719 18.9222 29.1062 18.9045C29.0406 18.8868 28.975 18.8691 28.9094 18.8426C28.8531 18.8249 28.7969 18.7984 28.7406 18.763C28.6844 18.7365 28.6375 18.6922 28.5906 18.648C28.5437 18.6038 28.5156 18.5507 28.4875 18.4888C28.4594 18.4269 28.45 18.3562 28.45 18.2678C28.45 18.144 28.4781 18.029 28.525 17.9317C28.5719 17.8345 28.6469 17.7637 28.7312 17.7018C28.8156 17.6399 28.9188 17.5957 29.0313 17.5603C29.1438 17.5338 29.2656 17.5161 29.3875 17.5161C29.4625 17.5161 29.5281 17.5161 29.6031 17.525C29.6781 17.5338 29.7437 17.5426 29.8187 17.5603C29.8844 17.578 29.95 17.5957 30.0156 17.6134C30.0813 17.6311 30.1375 17.6576 30.1844 17.6753L30.0906 18.1086C29.9687 18.0644 29.8469 18.0202 29.725 18.0025C29.6031 17.9848 29.4906 17.9671 29.3875 17.9671C29.275 17.9671 29.1813 17.9848 29.125 18.029C29.0594 18.0732 29.0313 18.1263 29.0313 18.197C29.0313 18.2412 29.0406 18.2766 29.0687 18.3031C29.0875 18.3297 29.125 18.3562 29.1625 18.3827C29.2 18.4004 29.2469 18.4269 29.2937 18.4446C29.3406 18.4623 29.3969 18.48 29.4437 18.4977C29.5094 18.5242 29.5844 18.5507 29.65 18.5773C29.7156 18.6038 29.7813 18.6392 29.8375 18.6922C29.8938 18.7365 29.9406 18.7984 29.9781 18.8603C30.0156 18.931 30.0344 19.0106 30.0344 19.1167C30.0344 19.2493 30.0062 19.3643 29.9594 19.4616C29.9031 19.5589 29.8375 19.6384 29.7344 19.7092C29.6313 19.7799 29.5281 19.8241 29.3875 19.8595C29.2562 19.8949 29.1063 19.9126 28.9469 19.9126C28.8531 19.9126 28.7687 19.9037 28.6844 19.8949C28.6 19.886 28.5344 19.8772 28.4688 19.8595C28.4031 19.8418 28.3469 19.833 28.3 19.8153C28.2531 19.7976 28.2156 19.7888 28.1875 19.7711L28.2813 19.3289C28.3938 19.3732 28.4969 19.3997 28.6094 19.4262C28.7219 19.4527 28.8344 19.4616 28.9469 19.4616C29.1156 19.4616 29.2375 19.4351 29.3219 19.382C29.4063 19.3289 29.4437 19.2582 29.4437 19.1609Z" fill="#FF3811"/>
</g>
<defs>
<clipPath id="clip0_39_238">
<rect width="30" height="12" fill="white" transform="translate(1 9)"/>
</clipPath>
</defs>
</svg>
