<svg width="37" height="35" viewBox="0 0 37 35" fill="none" xmlns="http://www.w3.org/2000/svg">
<g clip-path="url(#clip0_12_552)">
<rect opacity="0.1" y="0.0864258" width="36" height="35" rx="17.5" fill="white"/>
<path d="M25.1424 17.8653C25.1424 21.7065 22.5185 24.4116 18.6502 24.4116C14.9172 24.4116 11.9416 21.436 11.9416 17.703C11.9416 13.997 14.9172 10.9944 18.6502 10.9944C20.4355 10.9944 21.9774 11.6707 23.1406 12.7527L21.3012 14.511C18.9207 12.2117 14.4844 13.9429 14.4844 17.703C14.4844 20.0564 16.3509 21.95 18.6502 21.95C21.3012 21.95 22.3021 20.0564 22.4373 19.0555H18.6502V16.7562H25.0342C25.0883 17.1079 25.1424 17.4325 25.1424 17.8653Z" fill="white"/>
</g>
<defs>
<clipPath id="clip0_12_552">
<rect width="36.3563" height="34.625" fill="white" transform="translate(0 0.0864258)"/>
</clipPath>
</defs>
</svg>
