<svg width="36" height="35" viewBox="0 0 36 35" fill="none" xmlns="http://www.w3.org/2000/svg">
<g clip-path="url(#clip0_12_558)">
<rect opacity="0.1" x="0.96582" y="0.0864258" width="35" height="35" rx="17.5" fill="white"/>
<path d="M19.0073 14.5921C20.7115 14.5921 22.1182 15.9988 22.1182 17.703C22.1182 19.4342 20.7115 20.8138 19.0073 20.8138C17.2761 20.8138 15.8965 19.4342 15.8965 17.703C15.8965 15.9988 17.2761 14.5921 19.0073 14.5921ZM19.0073 19.7318C20.1164 19.7318 21.0091 18.8391 21.0091 17.703C21.0091 16.5939 20.1164 15.7012 19.0073 15.7012C17.8712 15.7012 16.9785 16.5939 16.9785 17.703C16.9785 18.8391 17.8982 19.7318 19.0073 19.7318ZM22.9567 14.4839C22.9567 14.8897 22.6321 15.2143 22.2264 15.2143C21.8206 15.2143 21.496 14.8897 21.496 14.4839C21.496 14.0782 21.8206 13.7536 22.2264 13.7536C22.6321 13.7536 22.9567 14.0782 22.9567 14.4839ZM25.0126 15.2143C25.0667 16.2152 25.0667 19.2178 25.0126 20.2187C24.9585 21.1925 24.7421 22.0311 24.0388 22.7615C23.3354 23.4648 22.4698 23.6812 21.496 23.7353C20.4951 23.7894 17.4925 23.7894 16.4916 23.7353C15.5178 23.6812 14.6792 23.4648 13.9488 22.7615C13.2455 22.0311 13.0291 21.1925 12.975 20.2187C12.9209 19.2178 12.9209 16.2152 12.975 15.2143C13.0291 14.2405 13.2455 13.3749 13.9488 12.6715C14.6792 11.9682 15.5178 11.7518 16.4916 11.6977C17.4925 11.6436 20.4951 11.6436 21.496 11.6977C22.4698 11.7518 23.3354 11.9682 24.0388 12.6715C24.7421 13.3749 24.9585 14.2405 25.0126 15.2143ZM23.7142 21.2737C24.0388 20.4892 23.9576 18.5957 23.9576 17.703C23.9576 16.8374 24.0388 14.9438 23.7142 14.1323C23.4978 13.6183 23.092 13.1855 22.578 12.9961C21.7665 12.6715 19.8729 12.7527 19.0073 12.7527C18.1146 12.7527 16.2211 12.6715 15.4366 12.9961C14.8956 13.2125 14.4898 13.6183 14.2734 14.1323C13.9488 14.9438 14.03 16.8374 14.03 17.703C14.03 18.5957 13.9488 20.4892 14.2734 21.2737C14.4898 21.8147 14.8956 22.2205 15.4366 22.4369C16.2211 22.7615 18.1146 22.6803 19.0073 22.6803C19.8729 22.6803 21.7665 22.7615 22.578 22.4369C23.092 22.2205 23.5248 21.8147 23.7142 21.2737Z" fill="white"/>
</g>
<defs>
<clipPath id="clip0_12_558">
<rect width="34.625" height="34.625" fill="white" transform="translate(0.96582 0.0864258)"/>
</clipPath>
</defs>
</svg>
