<svg width="190" height="81" viewBox="0 0 190 81" fill="none" xmlns="http://www.w3.org/2000/svg">
<g clip-path="url(#clip0_13_2411)">
<path d="M4.32944 25.7229C3.50409 30.3213 5.92119 33.21 11.6397 34.7428C17.2403 36.2756 18.3604 37.042 18.1246 38.1621C17.8888 39.4001 16.7687 40.0486 12.524 40.0486C8.80992 40.0486 5.39061 39.4591 2.67874 38.1621L0.674316 45.0597C3.79886 46.2977 7.86666 46.8283 12.1703 46.8283C22.3692 46.8283 27.0266 43.7037 28.1467 37.8084C29.031 33.269 26.6139 30.4981 20.7185 28.7295C15.118 27.1378 14.1747 26.4303 14.3516 25.3102C14.5284 24.1312 15.5896 23.5416 19.5984 23.5416C22.664 23.5416 26.3191 24.0722 28.2057 24.8976L30.1511 18.1179C27.3213 17.1746 23.3715 16.762 19.5395 16.762C10.4017 16.762 5.44956 19.8275 4.32944 25.7229Z" fill="#151515"/>
<path d="M61.9859 27.3735C63.3418 20.417 58.4487 17.2925 49.5467 17.2925H36.2232L30.6226 46.3566H40.291L41.9417 37.4546H45.7147C54.5577 37.3956 60.6889 34.2711 61.9859 27.3735ZM52.8481 27.3735C52.3175 30.2623 49.9593 31.1466 46.6579 31.1466H43.1207L44.5356 23.5416H48.0728C51.4921 23.5416 53.3787 24.4259 52.8481 27.3735Z" fill="#151515"/>
<path d="M97.2993 31.7953C98.891 23.1291 94.4105 16.821 83.2683 16.821C72.1261 16.821 65.1695 23.1291 63.5188 31.7953C61.8092 40.4614 66.3486 46.8284 77.4909 46.8284C88.5741 46.8284 95.5896 40.4614 97.2993 31.7953ZM87.3361 31.7953C86.216 37.3958 83.3273 40.3435 78.6699 40.3435C74.0715 40.3435 72.3029 37.3369 73.4231 31.7953C74.4842 26.1947 77.3729 23.247 82.0303 23.247C86.6287 23.247 88.3973 26.1947 87.3361 31.7953Z" fill="#FF3811"/>
<path d="M130.078 26.6662C131.316 20.1224 126.246 17.2336 117.579 17.2336H104.02L98.4194 46.2978H108.029L109.974 36.0988H112.332L118.228 46.2978H129.193L121.647 35.0966C126.187 33.7996 129.252 31.0288 130.078 26.6662ZM120.409 26.6662C119.996 29.0244 117.815 30.0266 114.809 30.0266H111.271L112.509 23.2469H116.106C119.053 23.3059 120.881 24.3081 120.409 26.6662Z" fill="#151515"/>
<path d="M138.861 46.2979H148.706L153.069 23.9545H162.325L163.622 17.2927H135.206L133.85 23.9545H143.165L138.861 46.2979Z" fill="#151515"/>
<path d="M163.504 25.723C162.679 30.2624 165.037 33.1512 170.814 34.7429C176.415 36.2757 177.535 37.0421 177.299 38.1622C177.063 39.4003 175.943 40.0487 171.699 40.0487C167.985 40.0487 164.565 39.4592 161.853 38.1622L159.79 45.0008C162.915 46.2389 166.982 46.7694 171.286 46.7694C181.485 46.7694 186.142 43.6449 187.262 37.7496C188.147 33.2691 185.73 30.4393 179.834 28.6707C174.234 27.079 173.29 26.3715 173.467 25.2514C173.644 24.0723 174.705 23.4828 178.714 23.4828C181.78 23.4828 185.376 24.0134 187.38 24.8387L189.267 18.0591C186.437 17.1158 182.487 16.7031 178.655 16.7031C169.576 16.7621 164.683 19.8277 163.504 25.723Z" fill="#151515"/>
<path d="M73.7764 12.5763C74.4249 9.21592 72.6562 6.79883 68.3526 6.79883C64.108 6.79883 61.3372 9.27488 60.7476 12.5763C60.0402 15.9366 61.8088 18.4127 66.1124 18.4127C70.416 18.4127 73.1279 15.9366 73.7764 12.5763Z" fill="#151515"/>
<path d="M58.6846 4.49969C59.0973 2.2005 57.8592 0.549805 55.0295 0.549805C52.1407 0.549805 50.2542 2.2005 49.9005 4.49969C49.4878 6.73993 50.6079 8.39063 53.5556 8.39063C56.3854 8.39063 58.213 6.73993 58.6846 4.49969Z" fill="#151515"/>
<path d="M99.4802 11.9867C99.775 10.2771 98.8906 8.92114 96.5915 8.92114C94.3512 8.92114 92.9363 10.2181 92.5826 11.9867C92.2289 13.7553 93.1721 15.0523 95.4124 15.0523C97.6526 14.9934 99.0675 13.7553 99.4802 11.9867Z" fill="#151515"/>
<path d="M70.534 57.0864C70.534 58.3244 70.2392 59.3856 69.5907 60.2109C68.9423 61.0363 68.0579 61.6847 66.8789 62.2153V62.2743C67.3505 62.3922 67.7632 62.569 68.1169 62.8049C68.4706 63.0407 68.7654 63.3354 69.0602 63.6892C69.3549 64.0429 69.4728 64.3966 69.6497 64.8093C69.7676 65.222 69.8266 65.6346 69.8266 66.0473C69.8266 67.4622 69.4139 68.7002 68.5296 69.7614C67.6453 70.8225 66.4072 71.6479 64.7565 72.2374C63.9901 72.4732 63.1648 72.6501 62.2215 72.768C61.2783 72.8859 60.2171 72.9449 58.9791 72.9449H52.9658L57.2694 52.0164H63.1058C63.9312 52.0164 64.6976 52.0753 65.3461 52.1343C65.9946 52.2522 66.5841 52.3701 67.1147 52.5469C68.2348 52.9596 69.1191 53.5491 69.7086 54.3155C70.2392 55.1409 70.534 56.0252 70.534 57.0864ZM58.6254 63.8071L57.3873 69.7024H59.3918C61.1604 69.7024 62.4574 69.5256 63.4006 69.1718C64.2849 68.8181 64.9334 68.3465 65.3461 67.757C65.7588 67.1674 65.9356 66.5189 65.9356 65.8704C65.9356 65.4578 65.8177 65.0451 65.5819 64.7503C65.3461 64.4556 64.9924 64.2197 64.4618 64.0429C64.226 63.9839 63.9312 63.925 63.6364 63.866C63.3417 63.8071 62.87 63.8071 62.3984 63.8071H58.6254ZM62.0447 60.6236C62.6932 60.6236 63.1648 60.6236 63.5775 60.5646C63.9901 60.5057 64.3439 60.3878 64.6386 60.2699C65.2871 60.034 65.7588 59.6214 66.1125 59.1497C66.4662 58.6781 66.6431 58.0886 66.6431 57.3811C66.6431 56.9685 66.5252 56.6147 66.3483 56.261C66.1125 55.9073 65.7588 55.6715 65.2871 55.4946C65.0513 55.3767 64.6976 55.3178 64.3439 55.2588C63.9901 55.1999 63.5185 55.1998 63.0469 55.1998H60.394L59.2739 60.6236H62.0447Z" fill="#FF3811"/>
<path d="M85.2723 69.2896C85.2723 69.5844 85.3313 69.7612 85.5082 69.8791C85.685 69.9971 85.8619 70.056 86.1567 70.056C86.4514 70.056 86.8051 69.9971 87.2768 69.9381L86.6283 72.8858C85.9798 73.0037 85.3903 73.0626 84.8007 73.0626C83.9754 73.0626 83.3269 72.8858 82.8552 72.4731C82.3836 72.0604 82.1478 71.5298 82.0299 70.7634H81.9709C81.2635 71.6478 80.4971 72.2962 79.6718 72.65C78.8464 73.0626 78.0211 73.2395 77.2547 73.2395C76.6062 73.2395 75.9577 73.1216 75.4271 72.8858C74.8965 72.65 74.4249 72.2962 74.0712 71.8246C73.7174 71.353 73.4227 70.8224 73.1869 70.1739C73.01 69.5254 72.8921 68.818 72.8921 67.9926C72.8921 67.1673 72.951 66.283 73.1279 65.4576C73.3048 64.6323 73.4816 63.8069 73.7764 62.9816C74.0712 62.1562 74.4249 61.4488 74.8376 60.8003C75.2502 60.0929 75.7219 59.5033 76.2524 59.0317C76.783 58.5011 77.3726 58.1474 78.08 57.8526C78.7285 57.5578 79.4949 57.4399 80.2613 57.4399C80.9687 57.4399 81.6762 57.6168 82.3247 57.9116C82.9732 58.2063 83.5037 58.678 84.0343 59.3265H84.0933L84.6239 57.8526H87.7484L85.5671 68.4053C85.5082 68.5822 85.5082 68.759 85.4492 68.9359C85.2724 69.0538 85.2723 69.1717 85.2723 69.2896ZM83.0911 61.6256C82.9732 61.5077 82.8552 61.3309 82.7373 61.213C82.6194 61.0951 82.3836 60.9182 82.2068 60.8593C82.0299 60.7413 81.7941 60.6824 81.5583 60.5645C81.3225 60.5055 81.0277 60.4466 80.7919 60.4466C80.3202 60.4466 79.8486 60.5645 79.4359 60.8003C79.0233 61.0361 78.6695 61.3309 78.3748 61.7436C78.08 62.1562 77.7852 62.5689 77.5494 63.0995C77.3136 63.6301 77.1367 64.1017 76.9599 64.6912C76.783 65.2218 76.7241 65.7524 76.6062 66.283C76.5472 66.8136 76.4883 67.2852 76.4883 67.7568C76.4883 68.6411 76.6062 69.2896 76.9009 69.7023C77.1957 70.115 77.6084 70.3508 78.139 70.3508C78.6695 70.3508 79.2001 70.1739 79.7307 69.8202C80.2613 69.4665 80.7329 68.9948 81.1456 68.3464C81.4404 67.9337 81.6762 67.462 81.853 66.9315C82.0299 66.4009 82.2068 65.8113 82.3836 65.1039L83.0911 61.6256Z" fill="#FF3811"/>
<path d="M96.1197 56.8504C95.9429 57.6757 95.766 58.4421 95.5302 59.1496H95.5891C95.766 58.9137 96.0018 58.7369 96.2376 58.5011C96.4734 58.3242 96.7682 58.0884 97.1219 57.9705C97.4167 57.7936 97.7704 57.6757 98.1831 57.5578C98.5958 57.4399 98.9495 57.381 99.4211 57.381C100.07 57.381 100.659 57.4989 101.249 57.7347C101.838 57.9705 102.31 58.3242 102.781 58.7369C103.253 59.1496 103.548 59.7391 103.784 60.4465C104.019 61.095 104.137 61.9204 104.137 62.8047C104.137 63.5711 104.078 64.3964 103.902 65.1628C103.725 65.9882 103.548 66.7546 103.194 67.5799C102.899 68.3463 102.487 69.1127 102.015 69.7612C101.543 70.4097 100.954 71.0582 100.305 71.5888C99.6569 72.1193 98.8905 72.532 98.0652 72.8268C97.2398 73.1216 96.2966 73.2984 95.2354 73.2984C94.4101 73.2984 93.7026 73.1805 93.0541 72.9447C92.4056 72.7089 91.8751 72.3552 91.4624 71.9425C91.0497 71.5298 90.696 70.9992 90.4602 70.4097C90.2244 69.8202 90.1064 69.1717 90.1064 68.5232C90.1064 68.2284 90.1064 67.9926 90.1654 67.6978C90.2244 67.4031 90.2833 67.0493 90.3423 66.5777L93.7026 50.3655H97.3577L96.1197 56.8504ZM94.0563 66.9904C93.9974 67.2852 93.9384 67.521 93.9384 67.6978C93.9384 67.8747 93.9384 68.0515 93.9384 68.1695C93.9384 68.8179 94.1153 69.2896 94.4101 69.7023C94.7048 70.1149 95.1765 70.2918 95.766 70.2918C96.2966 70.2918 96.7682 70.1739 97.1809 69.9381C97.5936 69.7023 98.0062 69.4075 98.36 69.0538C98.7137 68.7 99.0084 68.2874 99.3032 67.7568C99.598 67.2852 99.7748 66.7546 100.011 66.224C100.188 65.6934 100.305 65.1628 100.423 64.5733C100.541 64.0427 100.541 63.5121 100.541 63.0405C100.541 62.6868 100.482 62.3331 100.423 62.0383C100.364 61.7435 100.246 61.4488 100.07 61.2129C99.8928 60.9771 99.7159 60.8003 99.4211 60.6234C99.1263 60.5055 98.8316 60.3876 98.4779 60.3876C98.1241 60.3876 97.7704 60.4465 97.3577 60.6234C96.9451 60.8003 96.5913 60.9771 96.2376 61.3308C95.8839 61.6256 95.5891 62.0383 95.2944 62.5689C94.9996 63.0994 94.7638 63.689 94.6459 64.3964L94.0563 66.9904Z" fill="#FF3811"/>
<path d="M106.319 57.7937H110.092L111.507 64.3965C111.802 65.8703 112.038 67.1673 112.273 68.4053H112.391C112.981 67.2263 113.629 65.9293 114.337 64.6323L118.051 57.7937H122.237L113.276 73.4164C112.686 74.4776 112.096 75.4208 111.507 76.3051C110.917 77.1894 110.269 77.9558 109.561 78.5454C108.854 79.1939 108.088 79.6655 107.203 80.0192C106.319 80.3729 105.376 80.5498 104.315 80.5498C103.489 80.5498 102.841 80.4908 102.369 80.3729L103.018 77.4252C103.43 77.4842 103.843 77.5432 104.197 77.5432C104.786 77.5432 105.317 77.4252 105.788 77.2484C106.26 77.0715 106.732 76.7178 107.144 76.3641C107.557 76.0104 107.97 75.4798 108.382 74.8313C108.795 74.1828 109.208 73.5343 109.679 72.709L106.319 57.7937Z" fill="#FF3811"/>
<path d="M139.038 60.8004H135.088L133.615 68.1106C133.556 68.3464 133.497 68.5233 133.497 68.7001C133.497 68.877 133.438 68.9949 133.438 69.1718C133.438 69.5844 133.556 69.8203 133.732 69.9971C133.968 70.174 134.322 70.2329 134.853 70.2329C135.206 70.2329 135.678 70.174 136.209 70.115C136.739 70.0561 137.27 69.9382 137.682 69.8203L137.093 72.8858C136.621 73.0037 136.032 73.1217 135.442 73.1806C134.853 73.2396 134.322 73.2985 133.791 73.2985C133.084 73.2985 132.435 73.2396 131.964 73.0627C131.433 72.8858 131.021 72.709 130.667 72.4142C130.313 72.1194 130.077 71.7657 129.9 71.412C129.724 70.9993 129.665 70.5277 129.665 70.0561C129.665 69.8792 129.665 69.6434 129.724 69.4076C129.724 69.1718 129.783 68.877 129.842 68.5233L131.433 60.8593H128.604L129.252 57.7937H132.082L132.966 53.5491H136.621L135.737 57.7937H139.687L139.038 60.8004Z" fill="#FF3811"/>
<path d="M148.883 57.3811C149.768 57.3811 150.593 57.499 151.3 57.7348C152.008 57.9706 152.656 58.3244 153.128 58.796C153.659 59.2676 154.012 59.8572 154.307 60.5646C154.602 61.272 154.72 62.1563 154.72 63.0996C154.72 64.4555 154.543 65.6936 154.189 66.9316C153.835 68.1696 153.305 69.2308 152.597 70.174C151.89 71.1173 151.006 71.8837 149.945 72.4143C148.883 72.9448 147.645 73.2396 146.289 73.2396C145.405 73.2396 144.58 73.1217 143.872 72.8859C143.165 72.6501 142.516 72.2964 141.986 71.8247C141.455 71.3531 141.101 70.7636 140.807 70.0561C140.512 69.3487 140.394 68.5233 140.394 67.5211C140.394 66.1652 140.571 64.9272 140.925 63.6891C141.278 62.4511 141.809 61.3899 142.516 60.4467C143.224 59.5034 144.108 58.737 145.169 58.2065C146.23 57.6759 147.468 57.3811 148.883 57.3811ZM148.53 60.4467C148.058 60.4467 147.586 60.5646 147.174 60.7415C146.761 60.9183 146.407 61.2131 146.054 61.5668C145.7 61.9205 145.405 62.3332 145.169 62.8048C144.933 63.2765 144.698 63.7481 144.58 64.2787C144.403 64.8093 144.285 65.3398 144.226 65.8704C144.167 66.401 144.108 66.9905 144.108 67.5211C144.108 68.4054 144.285 69.0539 144.698 69.5845C145.11 70.0561 145.759 70.3509 146.584 70.3509C147.056 70.3509 147.527 70.233 147.94 70.0561C148.353 69.8793 148.707 69.5845 149.06 69.2308C149.414 68.8771 149.709 68.4644 149.945 67.9927C150.18 67.5211 150.416 67.0495 150.534 66.5189C150.711 65.9883 150.829 65.4577 150.888 64.8682C150.947 64.3376 151.006 63.7481 151.006 63.2175C151.006 62.3922 150.829 61.6847 150.416 61.2131C150.062 60.6825 149.414 60.4467 148.53 60.4467Z" fill="#FF3811"/>
<path d="M156.901 57.7939H160.674L162.089 64.3967C162.384 65.8706 162.62 67.1676 162.856 68.4056H162.973C163.563 67.2265 164.211 65.9295 164.919 64.6326L168.633 57.7939H172.819L163.917 73.4166C163.327 74.4778 162.738 75.4211 162.148 76.3054C161.559 77.1897 160.91 77.9561 160.203 78.5456C159.495 79.1941 158.729 79.6657 157.844 80.0194C156.96 80.3732 156.017 80.55 154.956 80.55C154.13 80.55 153.482 80.4911 153.01 80.3732L153.659 77.4255C154.071 77.4844 154.484 77.5434 154.838 77.5434C155.427 77.5434 155.958 77.4255 156.43 77.2486C156.901 77.0718 157.373 76.718 157.786 76.3643C158.198 76.0106 158.611 75.48 159.024 74.8315C159.436 74.183 159.849 73.5346 160.32 72.7092L156.901 57.7939Z" fill="#FF3811"/>
<path d="M179.539 68.2874C179.539 67.9926 179.421 67.6978 179.244 67.521C179.067 67.3441 178.773 67.1673 178.478 66.9904C178.183 66.8135 177.829 66.6956 177.417 66.5777C177.004 66.4598 176.591 66.3419 176.179 66.1651C175.825 66.0472 175.471 65.8703 175.117 65.6345C174.764 65.4576 174.469 65.1628 174.174 64.8681C173.879 64.5733 173.703 64.2196 173.526 63.8069C173.349 63.3942 173.29 62.9226 173.29 62.3331C173.29 61.5077 173.467 60.7413 173.761 60.0928C174.056 59.4443 174.528 58.9727 175.058 58.56C175.589 58.1474 176.238 57.8526 176.945 57.6168C177.652 57.4399 178.419 57.322 179.185 57.322C179.657 57.322 180.07 57.322 180.541 57.381C181.013 57.4399 181.425 57.4989 181.897 57.6168C182.31 57.7347 182.722 57.8526 183.135 57.9705C183.548 58.0884 183.902 58.2653 184.196 58.3832L183.607 61.2719C182.84 60.9771 182.074 60.6824 181.308 60.5645C180.541 60.4466 179.834 60.3287 179.185 60.3287C178.478 60.3287 177.888 60.4466 177.535 60.7413C177.122 61.0361 176.945 61.3898 176.945 61.8614C176.945 62.1562 177.004 62.392 177.181 62.5689C177.299 62.7457 177.535 62.9226 177.77 63.0995C178.006 63.2174 178.301 63.3942 178.596 63.5121C178.89 63.6301 179.244 63.748 179.539 63.8659C179.952 64.0427 180.423 64.2196 180.836 64.3965C181.249 64.5733 181.661 64.8091 182.015 65.1628C182.369 65.4576 182.663 65.8703 182.899 66.283C183.135 66.7546 183.253 67.2852 183.253 67.9926C183.253 68.8769 183.076 69.6433 182.781 70.2918C182.428 70.9403 182.015 71.4709 181.367 71.9425C180.718 72.4141 180.07 72.7089 179.185 72.9447C178.36 73.1805 177.417 73.2984 176.414 73.2984C175.825 73.2984 175.294 73.2395 174.764 73.1805C174.233 73.1216 173.82 73.0626 173.408 72.9447C172.995 72.8268 172.641 72.7679 172.347 72.65C172.052 72.532 171.816 72.4731 171.639 72.3552L172.229 69.4075C172.936 69.7023 173.585 69.8791 174.292 70.056C175 70.2329 175.707 70.2918 176.414 70.2918C177.476 70.2918 178.242 70.1149 178.773 69.7612C179.303 69.4075 179.539 68.9359 179.539 68.2874Z" fill="#FF3811"/>
</g>
<defs>
<clipPath id="clip0_13_2411">
<rect width="188.652" height="80" fill="white" transform="translate(0.674316 0.549805)"/>
</clipPath>
</defs>
</svg>
