<svg width="37" height="35" viewBox="0 0 37 35" fill="none" xmlns="http://www.w3.org/2000/svg">
<g clip-path="url(#clip0_12_555)">
<rect opacity="0.1" x="0.549805" y="0.0864258" width="36" height="35" rx="17.5" fill="white"/>
<path d="M24.5831 14.8897C24.5831 15.025 24.5831 15.1332 24.5831 15.2684C24.5831 19.0285 21.7428 23.3295 16.522 23.3295C14.8989 23.3295 13.4111 22.8697 12.1668 22.0582C12.3832 22.0852 12.5996 22.1123 12.8431 22.1123C14.1686 22.1123 15.3858 21.6524 16.3597 20.895C15.1153 20.8679 14.0604 20.0564 13.7087 18.9203C13.898 18.9473 14.0604 18.9744 14.2497 18.9744C14.4932 18.9744 14.7637 18.9203 14.9801 18.8662C13.6816 18.5957 12.7078 17.4595 12.7078 16.0799V16.0529C13.0865 16.2693 13.5464 16.3775 14.0063 16.4045C13.2218 15.8906 12.7349 15.025 12.7349 14.0511C12.7349 13.5101 12.8701 13.0232 13.1136 12.6174C14.5202 14.3216 16.6302 15.4578 18.9836 15.593C18.9295 15.3766 18.9024 15.1602 18.9024 14.9438C18.9024 13.3749 20.1738 12.1035 21.7428 12.1035C22.5543 12.1035 23.2847 12.4281 23.8257 12.9961C24.4479 12.8609 25.07 12.6174 25.611 12.2928C25.3946 12.9691 24.9618 13.5101 24.3667 13.8618C24.9348 13.8077 25.5028 13.6454 25.9897 13.429C25.611 13.997 25.1241 14.4839 24.5831 14.8897Z" fill="white"/>
</g>
<defs>
<clipPath id="clip0_12_555">
<rect width="36.3563" height="34.625" fill="white" transform="translate(0.549805 0.0864258)"/>
</clipPath>
</defs>
</svg>
