<svg width="190" height="81" viewBox="0 0 190 81" fill="none" xmlns="http://www.w3.org/2000/svg">
<g clip-path="url(#clip0_13_2409)">
<path d="M4.32944 26.0232C3.50409 30.6216 5.92119 33.5103 11.6397 35.0431C17.2403 36.5759 18.3604 37.3423 18.1246 38.4624C17.8888 39.7004 16.7687 40.3489 12.524 40.3489C8.80992 40.3489 5.39061 39.7594 2.67874 38.4624L0.674316 45.36C3.79886 46.598 7.86666 47.1286 12.1703 47.1286C22.3692 47.1286 27.0266 44.004 28.1467 38.1087C29.031 33.5693 26.6139 30.7984 20.7185 29.0298C15.118 27.4381 14.1747 26.7306 14.3516 25.6105C14.5284 24.4315 15.5896 23.8419 19.5984 23.8419C22.664 23.8419 26.3191 24.3725 28.2057 25.1978L30.1511 18.4182C27.3213 17.4749 23.3715 17.0623 19.5395 17.0623C10.4017 17.0623 5.44956 20.1278 4.32944 26.0232Z" fill="white"/>
<path d="M61.9859 27.6738C63.3418 20.7173 58.4487 17.5928 49.5467 17.5928H36.2232L30.6226 46.6569H40.291L41.9417 37.7549H45.7147C54.5577 37.6959 60.6889 34.5714 61.9859 27.6738ZM52.8481 27.6738C52.3175 30.5626 49.9593 31.4469 46.6579 31.4469H43.1207L44.5356 23.8419H48.0728C51.4921 23.8419 53.3787 24.7262 52.8481 27.6738Z" fill="white"/>
<path d="M97.2993 32.0955C98.891 23.4294 94.4105 17.1213 83.2683 17.1213C72.1261 17.1213 65.1695 23.4294 63.5188 32.0955C61.8092 40.7617 66.3486 47.1287 77.4909 47.1287C88.5741 47.1287 95.5896 40.7617 97.2993 32.0955ZM87.3361 32.0955C86.216 37.6961 83.3273 40.6438 78.6699 40.6438C74.0715 40.6438 72.3029 37.6372 73.4231 32.0955C74.4842 26.495 77.3729 23.5473 82.0303 23.5473C86.6287 23.5473 88.3973 26.495 87.3361 32.0955Z" fill="#FF3811"/>
<path d="M130.078 26.9665C131.316 20.4227 126.246 17.5339 117.579 17.5339H104.02L98.4194 46.598H108.029L109.974 36.3991H112.332L118.228 46.598H129.193L121.647 35.3969C126.187 34.0999 129.252 31.3291 130.078 26.9665ZM120.409 26.9665C119.996 29.3247 117.815 30.3269 114.809 30.3269H111.271L112.509 23.5472H116.106C119.053 23.6062 120.881 24.6084 120.409 26.9665Z" fill="white"/>
<path d="M138.861 46.5982H148.706L153.069 24.2548H162.325L163.622 17.593H135.206L133.85 24.2548H143.165L138.861 46.5982Z" fill="white"/>
<path d="M163.504 26.0233C162.679 30.5627 165.037 33.4515 170.814 35.0432C176.415 36.576 177.535 37.3424 177.299 38.4625C177.063 39.7005 175.943 40.349 171.699 40.349C167.985 40.349 164.565 39.7595 161.853 38.4625L159.79 45.3011C162.915 46.5392 166.982 47.0697 171.286 47.0697C181.485 47.0697 186.142 43.9452 187.262 38.0498C188.147 33.5694 185.73 30.7396 179.834 28.971C174.234 27.3792 173.29 26.6718 173.467 25.5517C173.644 24.3726 174.705 23.7831 178.714 23.7831C181.78 23.7831 185.376 24.3137 187.38 25.139L189.267 18.3594C186.437 17.4161 182.487 17.0034 178.655 17.0034C169.576 17.0624 164.683 20.128 163.504 26.0233Z" fill="white"/>
<path d="M73.7764 12.8766C74.4249 9.51622 72.6562 7.09912 68.3526 7.09912C64.108 7.09912 61.3372 9.57517 60.7476 12.8766C60.0402 16.2369 61.8088 18.713 66.1124 18.713C70.416 18.713 73.1279 16.2369 73.7764 12.8766Z" fill="white"/>
<path d="M58.6846 4.79999C59.0973 2.5008 57.8592 0.850098 55.0295 0.850098C52.1407 0.850098 50.2542 2.5008 49.9005 4.79999C49.4878 7.04022 50.6079 8.69092 53.5556 8.69092C56.3854 8.69092 58.213 7.04022 58.6846 4.79999Z" fill="white"/>
<path d="M99.4802 12.287C99.775 10.5774 98.8906 9.22144 96.5915 9.22144C94.3512 9.22144 92.9363 10.5184 92.5826 12.287C92.2289 14.0556 93.1721 15.3526 95.4124 15.3526C97.6526 15.2937 99.0675 14.0556 99.4802 12.287Z" fill="white"/>
<path d="M70.534 57.3867C70.534 58.6247 70.2392 59.6858 69.5907 60.5112C68.9423 61.3365 68.0579 61.985 66.8789 62.5156V62.5746C67.3505 62.6925 67.7632 62.8693 68.1169 63.1052C68.4706 63.341 68.7654 63.6357 69.0602 63.9895C69.3549 64.3432 69.4728 64.6969 69.6497 65.1096C69.7676 65.5222 69.8266 65.9349 69.8266 66.3476C69.8266 67.7625 69.4139 69.0005 68.5296 70.0617C67.6453 71.1228 66.4072 71.9482 64.7565 72.5377C63.9901 72.7735 63.1648 72.9504 62.2215 73.0683C61.2783 73.1862 60.2171 73.2452 58.9791 73.2452H52.9658L57.2694 52.3167H63.1058C63.9312 52.3167 64.6976 52.3756 65.3461 52.4346C65.9946 52.5525 66.5841 52.6704 67.1147 52.8472C68.2348 53.2599 69.1191 53.8494 69.7086 54.6158C70.2392 55.4412 70.534 56.3255 70.534 57.3867ZM58.6254 64.1074L57.3873 70.0027H59.3918C61.1604 70.0027 62.4574 69.8259 63.4006 69.4721C64.2849 69.1184 64.9334 68.6468 65.3461 68.0573C65.7588 67.4677 65.9356 66.8192 65.9356 66.1707C65.9356 65.7581 65.8177 65.3454 65.5819 65.0506C65.3461 64.7559 64.9924 64.52 64.4618 64.3432C64.226 64.2842 63.9312 64.2253 63.6364 64.1663C63.3417 64.1074 62.87 64.1074 62.3984 64.1074H58.6254ZM62.0447 60.9239C62.6932 60.9239 63.1648 60.9239 63.5775 60.8649C63.9901 60.806 64.3439 60.6881 64.6386 60.5702C65.2871 60.3343 65.7588 59.9217 66.1125 59.45C66.4662 58.9784 66.6431 58.3889 66.6431 57.6814C66.6431 57.2687 66.5252 56.915 66.3483 56.5613C66.1125 56.2076 65.7588 55.9718 65.2871 55.7949C65.0513 55.677 64.6976 55.6181 64.3439 55.5591C63.9901 55.5001 63.5185 55.5001 63.0469 55.5001H60.394L59.2739 60.9239H62.0447Z" fill="#FF3811"/>
<path d="M85.2723 69.5899C85.2723 69.8847 85.3313 70.0615 85.5082 70.1794C85.685 70.2973 85.8619 70.3563 86.1567 70.3563C86.4514 70.3563 86.8051 70.2973 87.2768 70.2384L86.6283 73.1861C85.9798 73.304 85.3903 73.3629 84.8007 73.3629C83.9754 73.3629 83.3269 73.1861 82.8552 72.7734C82.3836 72.3607 82.1478 71.8301 82.0299 71.0637H81.9709C81.2635 71.948 80.4971 72.5965 79.6718 72.9503C78.8464 73.3629 78.0211 73.5398 77.2547 73.5398C76.6062 73.5398 75.9577 73.4219 75.4271 73.1861C74.8965 72.9503 74.4249 72.5965 74.0712 72.1249C73.7174 71.6533 73.4227 71.1227 73.1869 70.4742C73.01 69.8257 72.8921 69.1183 72.8921 68.2929C72.8921 67.4676 72.951 66.5833 73.1279 65.7579C73.3048 64.9326 73.4816 64.1072 73.7764 63.2819C74.0712 62.4565 74.4249 61.7491 74.8376 61.1006C75.2502 60.3931 75.7219 59.8036 76.2524 59.332C76.783 58.8014 77.3726 58.4477 78.08 58.1529C78.7285 57.8581 79.4949 57.7402 80.2613 57.7402C80.9687 57.7402 81.6762 57.9171 82.3247 58.2119C82.9732 58.5066 83.5037 58.9783 84.0343 59.6267H84.0933L84.6239 58.1529H87.7484L85.5671 68.7056C85.5082 68.8825 85.5082 69.0593 85.4492 69.2362C85.2724 69.3541 85.2723 69.472 85.2723 69.5899ZM83.0911 61.9259C82.9732 61.808 82.8552 61.6312 82.7373 61.5133C82.6194 61.3954 82.3836 61.2185 82.2068 61.1595C82.0299 61.0416 81.7941 60.9827 81.5583 60.8648C81.3225 60.8058 81.0277 60.7469 80.7919 60.7469C80.3202 60.7469 79.8486 60.8648 79.4359 61.1006C79.0233 61.3364 78.6695 61.6312 78.3748 62.0438C78.08 62.4565 77.7852 62.8692 77.5494 63.3998C77.3136 63.9304 77.1367 64.402 76.9599 64.9915C76.783 65.5221 76.7241 66.0527 76.6062 66.5833C76.5472 67.1139 76.4883 67.5855 76.4883 68.0571C76.4883 68.9414 76.6062 69.5899 76.9009 70.0026C77.1957 70.4153 77.6084 70.6511 78.139 70.6511C78.6695 70.6511 79.2001 70.4742 79.7307 70.1205C80.2613 69.7668 80.7329 69.2951 81.1456 68.6466C81.4404 68.234 81.6762 67.7623 81.853 67.2318C82.0299 66.7012 82.2068 66.1116 82.3836 65.4042L83.0911 61.9259Z" fill="#FF3811"/>
<path d="M96.1197 57.1507C95.9429 57.976 95.766 58.7424 95.5302 59.4499H95.5891C95.766 59.214 96.0018 59.0372 96.2376 58.8014C96.4734 58.6245 96.7682 58.3887 97.1219 58.2708C97.4167 58.0939 97.7704 57.976 98.1831 57.8581C98.5958 57.7402 98.9495 57.6812 99.4211 57.6812C100.07 57.6812 100.659 57.7992 101.249 58.035C101.838 58.2708 102.31 58.6245 102.781 59.0372C103.253 59.4499 103.548 60.0394 103.784 60.7468C104.019 61.3953 104.137 62.2207 104.137 63.105C104.137 63.8714 104.078 64.6967 103.902 65.4631C103.725 66.2885 103.548 67.0549 103.194 67.8802C102.899 68.6466 102.487 69.413 102.015 70.0615C101.543 70.71 100.954 71.3585 100.305 71.8891C99.6569 72.4196 98.8905 72.8323 98.0652 73.1271C97.2398 73.4219 96.2966 73.5987 95.2354 73.5987C94.4101 73.5987 93.7026 73.4808 93.0541 73.245C92.4056 73.0092 91.8751 72.6555 91.4624 72.2428C91.0497 71.8301 90.696 71.2995 90.4602 70.71C90.2244 70.1205 90.1064 69.472 90.1064 68.8235C90.1064 68.5287 90.1064 68.2929 90.1654 67.9981C90.2244 67.7034 90.2833 67.3496 90.3423 66.878L93.7026 50.6658H97.3577L96.1197 57.1507ZM94.0563 67.2907C93.9974 67.5854 93.9384 67.8213 93.9384 67.9981C93.9384 68.175 93.9384 68.3518 93.9384 68.4698C93.9384 69.1182 94.1153 69.5899 94.4101 70.0025C94.7048 70.4152 95.1765 70.5921 95.766 70.5921C96.2966 70.5921 96.7682 70.4742 97.1809 70.2384C97.5936 70.0025 98.0062 69.7078 98.36 69.3541C98.7137 69.0003 99.0084 68.5877 99.3032 68.0571C99.598 67.5854 99.7748 67.0549 100.011 66.5243C100.188 65.9937 100.305 65.4631 100.423 64.8736C100.541 64.343 100.541 63.8124 100.541 63.3408C100.541 62.9871 100.482 62.6333 100.423 62.3386C100.364 62.0438 100.246 61.749 100.07 61.5132C99.8928 61.2774 99.7159 61.1006 99.4211 60.9237C99.1263 60.8058 98.8316 60.6879 98.4779 60.6879C98.1241 60.6879 97.7704 60.7468 97.3577 60.9237C96.9451 61.1006 96.5913 61.2774 96.2376 61.6311C95.8839 61.9259 95.5891 62.3386 95.2944 62.8692C94.9996 63.3997 94.7638 63.9893 94.6459 64.6967L94.0563 67.2907Z" fill="#FF3811"/>
<path d="M106.319 58.094H110.092L111.507 64.6968C111.802 66.1706 112.038 67.4676 112.273 68.7056H112.391C112.981 67.5266 113.629 66.2296 114.337 64.9326L118.051 58.094H122.237L113.276 73.7167C112.686 74.7779 112.096 75.7211 111.507 76.6054C110.917 77.4897 110.269 78.2561 109.561 78.8457C108.854 79.4941 108.088 79.9658 107.203 80.3195C106.319 80.6732 105.376 80.8501 104.315 80.8501C103.489 80.8501 102.841 80.7911 102.369 80.6732L103.018 77.7255C103.43 77.7845 103.843 77.8434 104.197 77.8434C104.786 77.8434 105.317 77.7255 105.788 77.5487C106.26 77.3718 106.732 77.0181 107.144 76.6644C107.557 76.3107 107.97 75.7801 108.382 75.1316C108.795 74.4831 109.208 73.8346 109.679 73.0092L106.319 58.094Z" fill="#FF3811"/>
<path d="M139.038 61.1007H135.088L133.615 68.4109C133.556 68.6467 133.497 68.8236 133.497 69.0004C133.497 69.1773 133.438 69.2952 133.438 69.4721C133.438 69.8847 133.556 70.1206 133.732 70.2974C133.968 70.4743 134.322 70.5332 134.853 70.5332C135.206 70.5332 135.678 70.4743 136.209 70.4153C136.739 70.3564 137.27 70.2385 137.682 70.1206L137.093 73.1861C136.621 73.304 136.032 73.4219 135.442 73.4809C134.853 73.5399 134.322 73.5988 133.791 73.5988C133.084 73.5988 132.435 73.5399 131.964 73.363C131.433 73.1861 131.021 73.0093 130.667 72.7145C130.313 72.4197 130.077 72.066 129.9 71.7123C129.724 71.2996 129.665 70.828 129.665 70.3564C129.665 70.1795 129.665 69.9437 129.724 69.7079C129.724 69.4721 129.783 69.1773 129.842 68.8236L131.433 61.1596H128.604L129.252 58.094H132.082L132.966 53.8494H136.621L135.737 58.094H139.687L139.038 61.1007Z" fill="#FF3811"/>
<path d="M148.883 57.6814C149.768 57.6814 150.593 57.7993 151.3 58.0351C152.008 58.2709 152.656 58.6247 153.128 59.0963C153.659 59.5679 154.012 60.1574 154.307 60.8649C154.602 61.5723 154.72 62.4566 154.72 63.3999C154.72 64.7558 154.543 65.9938 154.189 67.2319C153.835 68.4699 153.305 69.5311 152.597 70.4743C151.89 71.4176 151.006 72.184 149.945 72.7146C148.883 73.2451 147.645 73.5399 146.289 73.5399C145.405 73.5399 144.58 73.422 143.872 73.1862C143.165 72.9504 142.516 72.5967 141.986 72.125C141.455 71.6534 141.101 71.0639 140.807 70.3564C140.512 69.649 140.394 68.8236 140.394 67.8214C140.394 66.4655 140.571 65.2275 140.925 63.9894C141.278 62.7514 141.809 61.6902 142.516 60.747C143.224 59.8037 144.108 59.0373 145.169 58.5067C146.23 57.9762 147.468 57.6814 148.883 57.6814ZM148.53 60.747C148.058 60.747 147.586 60.8649 147.174 61.0417C146.761 61.2186 146.407 61.5134 146.054 61.8671C145.7 62.2208 145.405 62.6335 145.169 63.1051C144.933 63.5768 144.698 64.0484 144.58 64.579C144.403 65.1095 144.285 65.6401 144.226 66.1707C144.167 66.7013 144.108 67.2908 144.108 67.8214C144.108 68.7057 144.285 69.3542 144.698 69.8848C145.11 70.3564 145.759 70.6512 146.584 70.6512C147.056 70.6512 147.527 70.5333 147.94 70.3564C148.353 70.1796 148.707 69.8848 149.06 69.5311C149.414 69.1773 149.709 68.7647 149.945 68.293C150.18 67.8214 150.416 67.3498 150.534 66.8192C150.711 66.2886 150.829 65.758 150.888 65.1685C150.947 64.6379 151.006 64.0484 151.006 63.5178C151.006 62.6925 150.829 61.985 150.416 61.5134C150.062 60.9828 149.414 60.747 148.53 60.747Z" fill="#FF3811"/>
<path d="M156.901 58.0942H160.674L162.089 64.697C162.384 66.1709 162.62 67.4679 162.856 68.7059H162.973C163.563 67.5268 164.211 66.2298 164.919 64.9329L168.633 58.0942H172.819L163.917 73.7169C163.327 74.7781 162.738 75.7214 162.148 76.6057C161.559 77.49 160.91 78.2564 160.203 78.8459C159.495 79.4944 158.729 79.966 157.844 80.3197C156.96 80.6735 156.017 80.8503 154.956 80.8503C154.13 80.8503 153.482 80.7914 153.01 80.6735L153.659 77.7258C154.071 77.7847 154.484 77.8437 154.838 77.8437C155.427 77.8437 155.958 77.7258 156.43 77.5489C156.901 77.3721 157.373 77.0183 157.786 76.6646C158.198 76.3109 158.611 75.7803 159.024 75.1318C159.436 74.4833 159.849 73.8348 160.32 73.0095L156.901 58.0942Z" fill="#FF3811"/>
<path d="M179.539 68.5877C179.539 68.2929 179.421 67.9981 179.244 67.8213C179.067 67.6444 178.773 67.4676 178.478 67.2907C178.183 67.1138 177.829 66.9959 177.417 66.878C177.004 66.7601 176.591 66.6422 176.179 66.4654C175.825 66.3474 175.471 66.1706 175.117 65.9348C174.764 65.7579 174.469 65.4631 174.174 65.1684C173.879 64.8736 173.703 64.5199 173.526 64.1072C173.349 63.6945 173.29 63.2229 173.29 62.6334C173.29 61.808 173.467 61.0416 173.761 60.3931C174.056 59.7446 174.528 59.273 175.058 58.8603C175.589 58.4477 176.238 58.1529 176.945 57.9171C177.652 57.7402 178.419 57.6223 179.185 57.6223C179.657 57.6223 180.07 57.6223 180.541 57.6813C181.013 57.7402 181.425 57.7992 181.897 57.9171C182.31 58.035 182.722 58.1529 183.135 58.2708C183.548 58.3887 183.902 58.5656 184.196 58.6835L183.607 61.5722C182.84 61.2774 182.074 60.9827 181.308 60.8648C180.541 60.7469 179.834 60.6289 179.185 60.6289C178.478 60.6289 177.888 60.7469 177.535 61.0416C177.122 61.3364 176.945 61.6901 176.945 62.1617C176.945 62.4565 177.004 62.6923 177.181 62.8692C177.299 63.046 177.535 63.2229 177.77 63.3998C178.006 63.5177 178.301 63.6945 178.596 63.8124C178.89 63.9303 179.244 64.0483 179.539 64.1662C179.952 64.343 180.423 64.5199 180.836 64.6967C181.249 64.8736 181.661 65.1094 182.015 65.4631C182.369 65.7579 182.663 66.1706 182.899 66.5833C183.135 67.0549 183.253 67.5855 183.253 68.2929C183.253 69.1772 183.076 69.9436 182.781 70.5921C182.428 71.2406 182.015 71.7712 181.367 72.2428C180.718 72.7144 180.07 73.0092 179.185 73.245C178.36 73.4808 177.417 73.5987 176.414 73.5987C175.825 73.5987 175.294 73.5398 174.764 73.4808C174.233 73.4219 173.82 73.3629 173.408 73.245C172.995 73.1271 172.641 73.0682 172.347 72.9502C172.052 72.8323 171.816 72.7734 171.639 72.6555L172.229 69.7078C172.936 70.0026 173.585 70.1794 174.292 70.3563C175 70.5331 175.707 70.5921 176.414 70.5921C177.476 70.5921 178.242 70.4152 178.773 70.0615C179.303 69.7078 179.539 69.2362 179.539 68.5877Z" fill="#FF3811"/>
</g>
<defs>
<clipPath id="clip0_13_2409">
<rect width="188.652" height="80" fill="white" transform="translate(0.674316 0.850098)"/>
</clipPath>
</defs>
</svg>
